<mxfile host="app.diagrams.net" modified="2022-11-04T12:22:15.360Z" agent="5.0 (Windows NT 10.0; Win64; x64) AppleWebKit/537.36 (KHTML, like Gecko) Chrome/105.0.0.0 Safari/537.36 OPR/91.0.4516.106" etag="-7n8gSxKJyAem0c9Nvkc" version="20.5.1" type="github">
  <diagram id="_q7bYi_gvPDVall4a-D0" name="Seite-1">
    <mxGraphModel dx="1381" dy="845" grid="1" gridSize="10" guides="1" tooltips="1" connect="1" arrows="1" fold="1" page="1" pageScale="1" pageWidth="827" pageHeight="1169" math="0" shadow="0">
      <root>
        <mxCell id="0" />
        <mxCell id="1" parent="0" />
        <mxCell id="PgBgA3ld0rTaQEbaYPgW-43" value="1" style="edgeStyle=orthogonalEdgeStyle;rounded=0;orthogonalLoop=1;jettySize=auto;html=1;endArrow=none;endFill=0;startArrow=none;" edge="1" parent="1" source="PgBgA3ld0rTaQEbaYPgW-70" target="PgBgA3ld0rTaQEbaYPgW-3">
          <mxGeometry relative="1" as="geometry" />
        </mxCell>
        <mxCell id="PgBgA3ld0rTaQEbaYPgW-99" value="1" style="edgeStyle=orthogonalEdgeStyle;rounded=0;orthogonalLoop=1;jettySize=auto;html=1;entryX=0;entryY=0.5;entryDx=0;entryDy=0;startArrow=none;startFill=0;endArrow=none;endFill=0;exitX=0.5;exitY=0;exitDx=0;exitDy=0;" edge="1" parent="1" source="PgBgA3ld0rTaQEbaYPgW-100" target="PgBgA3ld0rTaQEbaYPgW-8">
          <mxGeometry relative="1" as="geometry">
            <Array as="points">
              <mxPoint x="290" y="115" />
            </Array>
          </mxGeometry>
        </mxCell>
        <mxCell id="dVIr7VXh8_opA6isi3Re-1" value="player" style="whiteSpace=wrap;html=1;align=center;" parent="1" vertex="1">
          <mxGeometry x="130" y="260" width="100" height="40" as="geometry" />
        </mxCell>
        <mxCell id="dVIr7VXh8_opA6isi3Re-2" value="PASSWORD" style="ellipse;whiteSpace=wrap;html=1;align=center;" parent="1" vertex="1">
          <mxGeometry x="10" y="270" width="100" height="40" as="geometry" />
        </mxCell>
        <mxCell id="dVIr7VXh8_opA6isi3Re-3" value="NAME" style="ellipse;whiteSpace=wrap;html=1;align=center;fontStyle=4;" parent="1" vertex="1">
          <mxGeometry x="20" y="170" width="100" height="40" as="geometry" />
        </mxCell>
        <mxCell id="PgBgA3ld0rTaQEbaYPgW-1" value="ID" style="ellipse;whiteSpace=wrap;html=1;align=center;fontStyle=4;" vertex="1" parent="1">
          <mxGeometry x="10" y="220" width="100" height="40" as="geometry" />
        </mxCell>
        <mxCell id="PgBgA3ld0rTaQEbaYPgW-2" value="EMAIL" style="ellipse;whiteSpace=wrap;html=1;align=center;" vertex="1" parent="1">
          <mxGeometry y="320" width="100" height="40" as="geometry" />
        </mxCell>
        <mxCell id="PgBgA3ld0rTaQEbaYPgW-3" value="character_class" style="whiteSpace=wrap;html=1;align=center;" vertex="1" parent="1">
          <mxGeometry x="160" y="50" width="100" height="30" as="geometry" />
        </mxCell>
        <mxCell id="PgBgA3ld0rTaQEbaYPgW-4" value="NAME" style="ellipse;whiteSpace=wrap;html=1;align=center;fontStyle=4;" vertex="1" parent="1">
          <mxGeometry x="30" y="15" width="100" height="40" as="geometry" />
        </mxCell>
        <mxCell id="PgBgA3ld0rTaQEbaYPgW-5" value="INTELLIGENCE" style="ellipse;whiteSpace=wrap;html=1;align=center;" vertex="1" parent="1">
          <mxGeometry x="30" y="115" width="100" height="40" as="geometry" />
        </mxCell>
        <mxCell id="PgBgA3ld0rTaQEbaYPgW-6" value="AGILITY" style="ellipse;whiteSpace=wrap;html=1;align=center;" vertex="1" parent="1">
          <mxGeometry x="160" width="100" height="40" as="geometry" />
        </mxCell>
        <mxCell id="PgBgA3ld0rTaQEbaYPgW-7" value="POWER" style="ellipse;whiteSpace=wrap;html=1;align=center;" vertex="1" parent="1">
          <mxGeometry x="30" y="65" width="100" height="40" as="geometry" />
        </mxCell>
        <mxCell id="PgBgA3ld0rTaQEbaYPgW-73" value="m" style="edgeStyle=orthogonalEdgeStyle;rounded=0;orthogonalLoop=1;jettySize=auto;html=1;exitX=0.75;exitY=1;exitDx=0;exitDy=0;entryX=0.5;entryY=0;entryDx=0;entryDy=0;endArrow=none;endFill=0;" edge="1" parent="1" source="PgBgA3ld0rTaQEbaYPgW-8" target="PgBgA3ld0rTaQEbaYPgW-30">
          <mxGeometry relative="1" as="geometry">
            <Array as="points">
              <mxPoint x="485" y="150" />
              <mxPoint x="490" y="150" />
            </Array>
          </mxGeometry>
        </mxCell>
        <mxCell id="PgBgA3ld0rTaQEbaYPgW-8" value="team" style="whiteSpace=wrap;html=1;align=center;" vertex="1" parent="1">
          <mxGeometry x="410" y="100" width="100" height="30" as="geometry" />
        </mxCell>
        <mxCell id="PgBgA3ld0rTaQEbaYPgW-9" value="ID" style="ellipse;whiteSpace=wrap;html=1;align=center;fontStyle=4;" vertex="1" parent="1">
          <mxGeometry x="330" y="50" width="100" height="40" as="geometry" />
        </mxCell>
        <mxCell id="PgBgA3ld0rTaQEbaYPgW-76" value="n" style="edgeStyle=orthogonalEdgeStyle;rounded=0;orthogonalLoop=1;jettySize=auto;html=1;exitX=0.5;exitY=0;exitDx=0;exitDy=0;endArrow=none;endFill=0;startArrow=none;" edge="1" parent="1" source="PgBgA3ld0rTaQEbaYPgW-83" target="PgBgA3ld0rTaQEbaYPgW-27">
          <mxGeometry relative="1" as="geometry" />
        </mxCell>
        <mxCell id="PgBgA3ld0rTaQEbaYPgW-11" value="referee" style="whiteSpace=wrap;html=1;align=center;" vertex="1" parent="1">
          <mxGeometry x="370" y="660" width="100" height="40" as="geometry" />
        </mxCell>
        <mxCell id="PgBgA3ld0rTaQEbaYPgW-75" value="n" style="edgeStyle=orthogonalEdgeStyle;rounded=0;orthogonalLoop=1;jettySize=auto;html=1;exitX=0.5;exitY=0;exitDx=0;exitDy=0;endArrow=none;endFill=0;startArrow=none;" edge="1" parent="1" source="PgBgA3ld0rTaQEbaYPgW-85" target="PgBgA3ld0rTaQEbaYPgW-27">
          <mxGeometry relative="1" as="geometry" />
        </mxCell>
        <mxCell id="PgBgA3ld0rTaQEbaYPgW-12" value="server" style="whiteSpace=wrap;html=1;align=center;" vertex="1" parent="1">
          <mxGeometry x="590" y="560" width="100" height="40" as="geometry" />
        </mxCell>
        <mxCell id="PgBgA3ld0rTaQEbaYPgW-13" value="league" style="whiteSpace=wrap;html=1;align=center;" vertex="1" parent="1">
          <mxGeometry x="230" y="410" width="100" height="40" as="geometry" />
        </mxCell>
        <mxCell id="PgBgA3ld0rTaQEbaYPgW-14" value="achievement" style="whiteSpace=wrap;html=1;align=center;" vertex="1" parent="1">
          <mxGeometry x="30" y="780" width="100" height="40" as="geometry" />
        </mxCell>
        <mxCell id="PgBgA3ld0rTaQEbaYPgW-97" value="n" style="edgeStyle=orthogonalEdgeStyle;rounded=0;orthogonalLoop=1;jettySize=auto;html=1;entryX=0.5;entryY=1;entryDx=0;entryDy=0;startArrow=none;startFill=0;endArrow=none;endFill=0;" edge="1" parent="1" source="PgBgA3ld0rTaQEbaYPgW-113" target="dVIr7VXh8_opA6isi3Re-1">
          <mxGeometry relative="1" as="geometry" />
        </mxCell>
        <mxCell id="PgBgA3ld0rTaQEbaYPgW-15" value="medal" style="shape=ext;margin=3;whiteSpace=wrap;html=1;align=center;" vertex="1" parent="1">
          <mxGeometry x="60" y="600" width="100" height="40" as="geometry" />
        </mxCell>
        <mxCell id="PgBgA3ld0rTaQEbaYPgW-77" value="n" style="edgeStyle=orthogonalEdgeStyle;rounded=0;orthogonalLoop=1;jettySize=auto;html=1;exitX=0.5;exitY=0;exitDx=0;exitDy=0;endArrow=none;endFill=0;startArrow=none;" edge="1" parent="1" source="PgBgA3ld0rTaQEbaYPgW-87" target="PgBgA3ld0rTaQEbaYPgW-8">
          <mxGeometry relative="1" as="geometry">
            <Array as="points">
              <mxPoint x="310" y="500" />
              <mxPoint x="420" y="500" />
            </Array>
          </mxGeometry>
        </mxCell>
        <mxCell id="PgBgA3ld0rTaQEbaYPgW-16" value="team trophie" style="shape=ext;margin=3;whiteSpace=wrap;html=1;align=center;" vertex="1" parent="1">
          <mxGeometry x="180" y="675" width="100" height="40" as="geometry" />
        </mxCell>
        <mxCell id="PgBgA3ld0rTaQEbaYPgW-18" value="IP" style="ellipse;whiteSpace=wrap;html=1;align=center;fontStyle=4;" vertex="1" parent="1">
          <mxGeometry x="640" y="640" width="100" height="40" as="geometry" />
        </mxCell>
        <mxCell id="PgBgA3ld0rTaQEbaYPgW-19" value="DATE" style="ellipse;whiteSpace=wrap;html=1;align=center;" vertex="1" parent="1">
          <mxGeometry x="494" y="60" width="100" height="40" as="geometry" />
        </mxCell>
        <mxCell id="PgBgA3ld0rTaQEbaYPgW-20" value="NAME" style="ellipse;whiteSpace=wrap;html=1;align=center;" vertex="1" parent="1">
          <mxGeometry x="480" y="10" width="100" height="40" as="geometry" />
        </mxCell>
        <mxCell id="PgBgA3ld0rTaQEbaYPgW-22" value="DATE" style="ellipse;whiteSpace=wrap;html=1;align=center;fontStyle=4;" vertex="1" parent="1">
          <mxGeometry x="720" y="120" width="100" height="40" as="geometry" />
        </mxCell>
        <mxCell id="PgBgA3ld0rTaQEbaYPgW-23" value="STARTTIME" style="ellipse;whiteSpace=wrap;html=1;align=center;fontStyle=4;" vertex="1" parent="1">
          <mxGeometry x="720" y="180" width="100" height="40" as="geometry" />
        </mxCell>
        <mxCell id="PgBgA3ld0rTaQEbaYPgW-24" value="NAME" style="ellipse;whiteSpace=wrap;html=1;align=center;" vertex="1" parent="1">
          <mxGeometry x="700" y="585" width="100" height="40" as="geometry" />
        </mxCell>
        <mxCell id="PgBgA3ld0rTaQEbaYPgW-133" value="" style="edgeStyle=orthogonalEdgeStyle;rounded=0;orthogonalLoop=1;jettySize=auto;html=1;startArrow=none;startFill=0;endArrow=none;endFill=0;" edge="1" parent="1" source="PgBgA3ld0rTaQEbaYPgW-27" target="PgBgA3ld0rTaQEbaYPgW-121">
          <mxGeometry relative="1" as="geometry" />
        </mxCell>
        <mxCell id="PgBgA3ld0rTaQEbaYPgW-27" value="match" style="shape=ext;margin=3;double=1;whiteSpace=wrap;html=1;align=center;" vertex="1" parent="1">
          <mxGeometry x="590" y="270" width="100" height="40" as="geometry" />
        </mxCell>
        <mxCell id="PgBgA3ld0rTaQEbaYPgW-28" value="&lt;span style=&quot;border-bottom: 1px dotted&quot;&gt;HOST_ID&lt;/span&gt;" style="ellipse;whiteSpace=wrap;html=1;align=center;" vertex="1" parent="1">
          <mxGeometry x="670" y="65" width="100" height="40" as="geometry" />
        </mxCell>
        <mxCell id="PgBgA3ld0rTaQEbaYPgW-74" value="n" style="edgeStyle=orthogonalEdgeStyle;rounded=0;orthogonalLoop=1;jettySize=auto;html=1;exitX=1;exitY=0.5;exitDx=0;exitDy=0;endArrow=none;endFill=0;entryX=0;entryY=0.5;entryDx=0;entryDy=0;" edge="1" parent="1" source="PgBgA3ld0rTaQEbaYPgW-30" target="PgBgA3ld0rTaQEbaYPgW-27">
          <mxGeometry relative="1" as="geometry" />
        </mxCell>
        <mxCell id="PgBgA3ld0rTaQEbaYPgW-30" value="plays" style="shape=rhombus;double=1;perimeter=rhombusPerimeter;whiteSpace=wrap;html=1;align=center;" vertex="1" parent="1">
          <mxGeometry x="430" y="220" width="120" height="60" as="geometry" />
        </mxCell>
        <mxCell id="PgBgA3ld0rTaQEbaYPgW-35" value="SID" style="ellipse;whiteSpace=wrap;html=1;align=center;fontStyle=4;" vertex="1" parent="1">
          <mxGeometry x="380" y="715" width="100" height="40" as="geometry" />
        </mxCell>
        <mxCell id="PgBgA3ld0rTaQEbaYPgW-37" value="SNAME" style="ellipse;whiteSpace=wrap;html=1;align=center;" vertex="1" parent="1">
          <mxGeometry x="480" y="695" width="100" height="40" as="geometry" />
        </mxCell>
        <mxCell id="PgBgA3ld0rTaQEbaYPgW-38" value="NAME" style="ellipse;whiteSpace=wrap;html=1;align=center;fontStyle=4;" vertex="1" parent="1">
          <mxGeometry x="190" y="465" width="100" height="40" as="geometry" />
        </mxCell>
        <mxCell id="PgBgA3ld0rTaQEbaYPgW-39" value="RANK" style="ellipse;whiteSpace=wrap;html=1;align=center;" vertex="1" parent="1">
          <mxGeometry x="380" y="10" width="100" height="40" as="geometry" />
        </mxCell>
        <mxCell id="PgBgA3ld0rTaQEbaYPgW-40" value="NAME" style="ellipse;whiteSpace=wrap;html=1;align=center;fontStyle=4;" vertex="1" parent="1">
          <mxGeometry x="150" y="810" width="100" height="40" as="geometry" />
        </mxCell>
        <mxCell id="PgBgA3ld0rTaQEbaYPgW-50" value="" style="endArrow=none;html=1;rounded=0;" edge="1" parent="1" target="dVIr7VXh8_opA6isi3Re-1">
          <mxGeometry relative="1" as="geometry">
            <mxPoint x="110" y="240" as="sourcePoint" />
            <mxPoint x="270" y="240" as="targetPoint" />
          </mxGeometry>
        </mxCell>
        <mxCell id="PgBgA3ld0rTaQEbaYPgW-51" value="" style="endArrow=none;html=1;rounded=0;" edge="1" parent="1" source="dVIr7VXh8_opA6isi3Re-2" target="dVIr7VXh8_opA6isi3Re-1">
          <mxGeometry relative="1" as="geometry">
            <mxPoint x="110" y="290" as="sourcePoint" />
            <mxPoint x="270" y="290" as="targetPoint" />
          </mxGeometry>
        </mxCell>
        <mxCell id="PgBgA3ld0rTaQEbaYPgW-52" value="" style="endArrow=none;html=1;rounded=0;entryX=0.5;entryY=0;entryDx=0;entryDy=0;" edge="1" parent="1" source="dVIr7VXh8_opA6isi3Re-3" target="dVIr7VXh8_opA6isi3Re-1">
          <mxGeometry relative="1" as="geometry">
            <mxPoint x="120" y="250" as="sourcePoint" />
            <mxPoint x="130" y="253.33333333333337" as="targetPoint" />
          </mxGeometry>
        </mxCell>
        <mxCell id="PgBgA3ld0rTaQEbaYPgW-53" value="" style="endArrow=none;html=1;rounded=0;" edge="1" parent="1" source="PgBgA3ld0rTaQEbaYPgW-2" target="dVIr7VXh8_opA6isi3Re-1">
          <mxGeometry relative="1" as="geometry">
            <mxPoint x="130" y="260" as="sourcePoint" />
            <mxPoint x="140" y="263.33333333333337" as="targetPoint" />
          </mxGeometry>
        </mxCell>
        <mxCell id="PgBgA3ld0rTaQEbaYPgW-54" value="" style="endArrow=none;html=1;rounded=0;" edge="1" parent="1" source="PgBgA3ld0rTaQEbaYPgW-3" target="PgBgA3ld0rTaQEbaYPgW-4">
          <mxGeometry relative="1" as="geometry">
            <mxPoint x="-415" y="-610" as="sourcePoint" />
            <mxPoint x="-405" y="-606.6666666666666" as="targetPoint" />
          </mxGeometry>
        </mxCell>
        <mxCell id="PgBgA3ld0rTaQEbaYPgW-56" value="" style="endArrow=none;html=1;rounded=0;entryX=1;entryY=0;entryDx=0;entryDy=0;" edge="1" parent="1" source="PgBgA3ld0rTaQEbaYPgW-3" target="PgBgA3ld0rTaQEbaYPgW-7">
          <mxGeometry relative="1" as="geometry">
            <mxPoint x="-405" y="-437.69230769230785" as="sourcePoint" />
            <mxPoint x="-438.3327196898449" y="-442.8204184138224" as="targetPoint" />
          </mxGeometry>
        </mxCell>
        <mxCell id="PgBgA3ld0rTaQEbaYPgW-57" value="" style="endArrow=none;html=1;rounded=0;entryX=1;entryY=0;entryDx=0;entryDy=0;" edge="1" parent="1" source="PgBgA3ld0rTaQEbaYPgW-3" target="PgBgA3ld0rTaQEbaYPgW-5">
          <mxGeometry relative="1" as="geometry">
            <mxPoint x="-395" y="-427.69230769230785" as="sourcePoint" />
            <mxPoint x="-428.3327196898449" y="-432.8204184138224" as="targetPoint" />
          </mxGeometry>
        </mxCell>
        <mxCell id="PgBgA3ld0rTaQEbaYPgW-58" value="" style="endArrow=none;html=1;rounded=0;entryX=0.5;entryY=1;entryDx=0;entryDy=0;" edge="1" parent="1" source="PgBgA3ld0rTaQEbaYPgW-3" target="PgBgA3ld0rTaQEbaYPgW-6">
          <mxGeometry relative="1" as="geometry">
            <mxPoint x="-385" y="-417.69230769230785" as="sourcePoint" />
            <mxPoint x="-418.3327196898449" y="-422.8204184138224" as="targetPoint" />
          </mxGeometry>
        </mxCell>
        <mxCell id="PgBgA3ld0rTaQEbaYPgW-59" value="" style="endArrow=none;html=1;rounded=0;" edge="1" parent="1" source="PgBgA3ld0rTaQEbaYPgW-8" target="PgBgA3ld0rTaQEbaYPgW-9">
          <mxGeometry relative="1" as="geometry">
            <mxPoint x="260" y="312.30769230769215" as="sourcePoint" />
            <mxPoint x="226.6672803101551" y="307.1795815861776" as="targetPoint" />
          </mxGeometry>
        </mxCell>
        <mxCell id="PgBgA3ld0rTaQEbaYPgW-60" value="" style="endArrow=none;html=1;rounded=0;" edge="1" parent="1" source="PgBgA3ld0rTaQEbaYPgW-8" target="PgBgA3ld0rTaQEbaYPgW-39">
          <mxGeometry relative="1" as="geometry">
            <mxPoint x="438" y="110" as="sourcePoint" />
            <mxPoint x="416.95268482116853" y="96.84542801323028" as="targetPoint" />
          </mxGeometry>
        </mxCell>
        <mxCell id="PgBgA3ld0rTaQEbaYPgW-61" value="" style="endArrow=none;html=1;rounded=0;" edge="1" parent="1" source="PgBgA3ld0rTaQEbaYPgW-8" target="PgBgA3ld0rTaQEbaYPgW-20">
          <mxGeometry relative="1" as="geometry">
            <mxPoint x="448" y="120" as="sourcePoint" />
            <mxPoint x="426.95268482116853" y="106.84542801323028" as="targetPoint" />
          </mxGeometry>
        </mxCell>
        <mxCell id="PgBgA3ld0rTaQEbaYPgW-62" value="" style="endArrow=none;html=1;rounded=0;" edge="1" parent="1" source="PgBgA3ld0rTaQEbaYPgW-8" target="PgBgA3ld0rTaQEbaYPgW-19">
          <mxGeometry relative="1" as="geometry">
            <mxPoint x="458" y="130" as="sourcePoint" />
            <mxPoint x="436.95268482116853" y="116.84542801323028" as="targetPoint" />
          </mxGeometry>
        </mxCell>
        <mxCell id="PgBgA3ld0rTaQEbaYPgW-64" value="" style="endArrow=none;html=1;rounded=0;" edge="1" parent="1" source="PgBgA3ld0rTaQEbaYPgW-13" target="PgBgA3ld0rTaQEbaYPgW-38">
          <mxGeometry relative="1" as="geometry">
            <mxPoint x="398" y="150" as="sourcePoint" />
            <mxPoint x="376.95268482116853" y="136.84542801323028" as="targetPoint" />
          </mxGeometry>
        </mxCell>
        <mxCell id="PgBgA3ld0rTaQEbaYPgW-65" value="" style="endArrow=none;html=1;rounded=0;" edge="1" parent="1" source="PgBgA3ld0rTaQEbaYPgW-14" target="PgBgA3ld0rTaQEbaYPgW-40">
          <mxGeometry relative="1" as="geometry">
            <mxPoint x="408" y="160" as="sourcePoint" />
            <mxPoint x="386.95268482116853" y="146.84542801323028" as="targetPoint" />
          </mxGeometry>
        </mxCell>
        <mxCell id="PgBgA3ld0rTaQEbaYPgW-66" value="" style="endArrow=none;html=1;rounded=0;" edge="1" parent="1" source="PgBgA3ld0rTaQEbaYPgW-11" target="PgBgA3ld0rTaQEbaYPgW-35">
          <mxGeometry relative="1" as="geometry">
            <mxPoint x="458" y="265" as="sourcePoint" />
            <mxPoint x="436.95268482116853" y="251.84542801323028" as="targetPoint" />
          </mxGeometry>
        </mxCell>
        <mxCell id="PgBgA3ld0rTaQEbaYPgW-67" value="" style="endArrow=none;html=1;rounded=0;" edge="1" parent="1" source="PgBgA3ld0rTaQEbaYPgW-11" target="PgBgA3ld0rTaQEbaYPgW-37">
          <mxGeometry relative="1" as="geometry">
            <mxPoint x="468" y="275" as="sourcePoint" />
            <mxPoint x="446.95268482116853" y="261.8454280132303" as="targetPoint" />
          </mxGeometry>
        </mxCell>
        <mxCell id="PgBgA3ld0rTaQEbaYPgW-68" value="" style="endArrow=none;html=1;rounded=0;" edge="1" parent="1" source="PgBgA3ld0rTaQEbaYPgW-12" target="PgBgA3ld0rTaQEbaYPgW-18">
          <mxGeometry relative="1" as="geometry">
            <mxPoint x="640" y="560" as="sourcePoint" />
            <mxPoint x="466.95268482116853" y="236.84542801323028" as="targetPoint" />
          </mxGeometry>
        </mxCell>
        <mxCell id="PgBgA3ld0rTaQEbaYPgW-69" value="" style="endArrow=none;html=1;rounded=0;" edge="1" parent="1" source="PgBgA3ld0rTaQEbaYPgW-12" target="PgBgA3ld0rTaQEbaYPgW-24">
          <mxGeometry relative="1" as="geometry">
            <mxPoint x="662.5" y="610" as="sourcePoint" />
            <mxPoint x="687.8732187481833" y="650.5971499970929" as="targetPoint" />
          </mxGeometry>
        </mxCell>
        <mxCell id="PgBgA3ld0rTaQEbaYPgW-70" value="is" style="shape=rhombus;perimeter=rhombusPerimeter;whiteSpace=wrap;html=1;align=center;" vertex="1" parent="1">
          <mxGeometry x="140" y="130" width="120" height="60" as="geometry" />
        </mxCell>
        <mxCell id="PgBgA3ld0rTaQEbaYPgW-71" value="n" style="edgeStyle=orthogonalEdgeStyle;rounded=0;orthogonalLoop=1;jettySize=auto;html=1;exitX=0.5;exitY=0;exitDx=0;exitDy=0;endArrow=none;endFill=0;" edge="1" parent="1" source="dVIr7VXh8_opA6isi3Re-1" target="PgBgA3ld0rTaQEbaYPgW-70">
          <mxGeometry relative="1" as="geometry">
            <mxPoint x="170" y="280" as="sourcePoint" />
            <mxPoint x="190" y="420" as="targetPoint" />
          </mxGeometry>
        </mxCell>
        <mxCell id="PgBgA3ld0rTaQEbaYPgW-80" value="" style="endArrow=none;html=1;rounded=0;startArrow=classic;startFill=1;" edge="1" parent="1" source="PgBgA3ld0rTaQEbaYPgW-14" target="PgBgA3ld0rTaQEbaYPgW-16">
          <mxGeometry relative="1" as="geometry">
            <mxPoint x="60" y="670" as="sourcePoint" />
            <mxPoint x="220" y="670" as="targetPoint" />
          </mxGeometry>
        </mxCell>
        <mxCell id="PgBgA3ld0rTaQEbaYPgW-82" value="" style="endArrow=none;html=1;rounded=0;startArrow=classic;startFill=1;" edge="1" parent="1" source="PgBgA3ld0rTaQEbaYPgW-14" target="PgBgA3ld0rTaQEbaYPgW-15">
          <mxGeometry relative="1" as="geometry">
            <mxPoint x="130.76923076923072" y="640" as="sourcePoint" />
            <mxPoint x="179.23076923076928" y="730" as="targetPoint" />
          </mxGeometry>
        </mxCell>
        <mxCell id="PgBgA3ld0rTaQEbaYPgW-83" value="referees" style="shape=rhombus;perimeter=rhombusPerimeter;whiteSpace=wrap;html=1;align=center;" vertex="1" parent="1">
          <mxGeometry x="440" y="465" width="120" height="60" as="geometry" />
        </mxCell>
        <mxCell id="PgBgA3ld0rTaQEbaYPgW-84" value="1" style="edgeStyle=orthogonalEdgeStyle;rounded=0;orthogonalLoop=1;jettySize=auto;html=1;exitX=0.5;exitY=0;exitDx=0;exitDy=0;endArrow=none;endFill=0;" edge="1" parent="1" source="PgBgA3ld0rTaQEbaYPgW-11" target="PgBgA3ld0rTaQEbaYPgW-83">
          <mxGeometry relative="1" as="geometry">
            <mxPoint x="420" y="660" as="sourcePoint" />
            <mxPoint x="620" y="200" as="targetPoint" />
          </mxGeometry>
        </mxCell>
        <mxCell id="PgBgA3ld0rTaQEbaYPgW-85" value="hosts" style="shape=rhombus;perimeter=rhombusPerimeter;whiteSpace=wrap;html=1;align=center;" vertex="1" parent="1">
          <mxGeometry x="640" y="400" width="120" height="60" as="geometry" />
        </mxCell>
        <mxCell id="PgBgA3ld0rTaQEbaYPgW-86" value="1" style="edgeStyle=orthogonalEdgeStyle;rounded=0;orthogonalLoop=1;jettySize=auto;html=1;exitX=0.5;exitY=0;exitDx=0;exitDy=0;endArrow=none;endFill=0;" edge="1" parent="1" source="PgBgA3ld0rTaQEbaYPgW-12" target="PgBgA3ld0rTaQEbaYPgW-85">
          <mxGeometry relative="1" as="geometry">
            <mxPoint x="640" y="560" as="sourcePoint" />
            <mxPoint x="620" y="200" as="targetPoint" />
          </mxGeometry>
        </mxCell>
        <mxCell id="PgBgA3ld0rTaQEbaYPgW-87" value="achieved" style="shape=rhombus;perimeter=rhombusPerimeter;whiteSpace=wrap;html=1;align=center;" vertex="1" parent="1">
          <mxGeometry x="250" y="525" width="120" height="60" as="geometry" />
        </mxCell>
        <mxCell id="PgBgA3ld0rTaQEbaYPgW-88" value="m" style="edgeStyle=orthogonalEdgeStyle;rounded=0;orthogonalLoop=1;jettySize=auto;html=1;endArrow=none;endFill=0;" edge="1" parent="1" source="PgBgA3ld0rTaQEbaYPgW-16" target="PgBgA3ld0rTaQEbaYPgW-87">
          <mxGeometry relative="1" as="geometry">
            <mxPoint x="180" y="720" as="sourcePoint" />
            <mxPoint x="380" y="130" as="targetPoint" />
            <Array as="points">
              <mxPoint x="320" y="715" />
            </Array>
          </mxGeometry>
        </mxCell>
        <mxCell id="PgBgA3ld0rTaQEbaYPgW-91" value="n" style="edgeStyle=orthogonalEdgeStyle;rounded=0;orthogonalLoop=1;jettySize=auto;html=1;entryX=0.25;entryY=1;entryDx=0;entryDy=0;startArrow=none;startFill=0;endArrow=none;endFill=0;" edge="1" parent="1" source="PgBgA3ld0rTaQEbaYPgW-89" target="PgBgA3ld0rTaQEbaYPgW-8">
          <mxGeometry relative="1" as="geometry">
            <Array as="points">
              <mxPoint x="380" y="215" />
              <mxPoint x="355" y="215" />
              <mxPoint x="355" y="130" />
            </Array>
          </mxGeometry>
        </mxCell>
        <mxCell id="PgBgA3ld0rTaQEbaYPgW-89" value="plays_in" style="shape=rhombus;perimeter=rhombusPerimeter;whiteSpace=wrap;html=1;align=center;" vertex="1" parent="1">
          <mxGeometry x="290" y="300" width="120" height="60" as="geometry" />
        </mxCell>
        <mxCell id="PgBgA3ld0rTaQEbaYPgW-90" value="1" style="edgeStyle=orthogonalEdgeStyle;rounded=0;orthogonalLoop=1;jettySize=auto;html=1;exitX=0.5;exitY=0;exitDx=0;exitDy=0;entryX=0.25;entryY=1;entryDx=0;entryDy=0;endArrow=none;endFill=0;" edge="1" parent="1" source="PgBgA3ld0rTaQEbaYPgW-13" target="PgBgA3ld0rTaQEbaYPgW-89">
          <mxGeometry relative="1" as="geometry">
            <mxPoint x="230" y="410" as="sourcePoint" />
            <mxPoint x="355" y="130" as="targetPoint" />
            <Array as="points" />
          </mxGeometry>
        </mxCell>
        <mxCell id="PgBgA3ld0rTaQEbaYPgW-100" value="plays_for" style="shape=rhombus;perimeter=rhombusPerimeter;whiteSpace=wrap;html=1;align=center;" vertex="1" parent="1">
          <mxGeometry x="240" y="170" width="100" height="60" as="geometry" />
        </mxCell>
        <mxCell id="PgBgA3ld0rTaQEbaYPgW-101" value="n" style="edgeStyle=orthogonalEdgeStyle;rounded=0;orthogonalLoop=1;jettySize=auto;html=1;exitX=1;exitY=0.5;exitDx=0;exitDy=0;startArrow=none;startFill=0;endArrow=none;endFill=0;" edge="1" parent="1" source="dVIr7VXh8_opA6isi3Re-1" target="PgBgA3ld0rTaQEbaYPgW-100">
          <mxGeometry relative="1" as="geometry">
            <mxPoint x="230" y="280" as="sourcePoint" />
            <mxPoint x="410" y="115" as="targetPoint" />
          </mxGeometry>
        </mxCell>
        <mxCell id="PgBgA3ld0rTaQEbaYPgW-102" value="" style="endArrow=none;html=1;rounded=0;" edge="1" parent="1" source="PgBgA3ld0rTaQEbaYPgW-27" target="PgBgA3ld0rTaQEbaYPgW-28">
          <mxGeometry relative="1" as="geometry">
            <mxPoint x="482.3529411764707" y="110" as="sourcePoint" />
            <mxPoint x="524.3563212533218" y="58.99589562096662" as="targetPoint" />
          </mxGeometry>
        </mxCell>
        <mxCell id="PgBgA3ld0rTaQEbaYPgW-103" value="" style="endArrow=none;html=1;rounded=0;" edge="1" parent="1" source="PgBgA3ld0rTaQEbaYPgW-27" target="PgBgA3ld0rTaQEbaYPgW-22">
          <mxGeometry relative="1" as="geometry">
            <mxPoint x="492.3529411764707" y="120" as="sourcePoint" />
            <mxPoint x="534.3563212533218" y="68.99589562096662" as="targetPoint" />
          </mxGeometry>
        </mxCell>
        <mxCell id="PgBgA3ld0rTaQEbaYPgW-104" value="" style="endArrow=none;html=1;rounded=0;" edge="1" parent="1" source="PgBgA3ld0rTaQEbaYPgW-27" target="PgBgA3ld0rTaQEbaYPgW-23">
          <mxGeometry relative="1" as="geometry">
            <mxPoint x="502.3529411764707" y="130" as="sourcePoint" />
            <mxPoint x="544.3563212533218" y="78.99589562096662" as="targetPoint" />
          </mxGeometry>
        </mxCell>
        <mxCell id="PgBgA3ld0rTaQEbaYPgW-105" value="(1,1)" style="text;html=1;strokeColor=none;fillColor=none;align=center;verticalAlign=middle;whiteSpace=wrap;rounded=0;" vertex="1" parent="1">
          <mxGeometry x="700" y="350" width="60" height="30" as="geometry" />
        </mxCell>
        <mxCell id="PgBgA3ld0rTaQEbaYPgW-106" value="(0,*)" style="text;html=1;strokeColor=none;fillColor=none;align=center;verticalAlign=middle;whiteSpace=wrap;rounded=0;" vertex="1" parent="1">
          <mxGeometry x="700" y="495" width="60" height="30" as="geometry" />
        </mxCell>
        <mxCell id="PgBgA3ld0rTaQEbaYPgW-107" value="(1,1)" style="text;html=1;strokeColor=none;fillColor=none;align=center;verticalAlign=middle;whiteSpace=wrap;rounded=0;" vertex="1" parent="1">
          <mxGeometry x="510" y="350" width="60" height="30" as="geometry" />
        </mxCell>
        <mxCell id="PgBgA3ld0rTaQEbaYPgW-108" value="(0,*)" style="text;html=1;strokeColor=none;fillColor=none;align=center;verticalAlign=middle;whiteSpace=wrap;rounded=0;" vertex="1" parent="1">
          <mxGeometry x="470" y="605" width="60" height="30" as="geometry" />
        </mxCell>
        <mxCell id="PgBgA3ld0rTaQEbaYPgW-109" value="(1,1)" style="text;html=1;strokeColor=none;fillColor=none;align=center;verticalAlign=middle;whiteSpace=wrap;rounded=0;" vertex="1" parent="1">
          <mxGeometry x="200" y="220" width="60" height="30" as="geometry" />
        </mxCell>
        <mxCell id="PgBgA3ld0rTaQEbaYPgW-110" value="(1,1)" style="text;html=1;strokeColor=none;fillColor=none;align=center;verticalAlign=middle;whiteSpace=wrap;rounded=0;" vertex="1" parent="1">
          <mxGeometry x="320" y="250" width="60" height="30" as="geometry" />
        </mxCell>
        <mxCell id="PgBgA3ld0rTaQEbaYPgW-111" value="(1,1)" style="text;html=1;strokeColor=none;fillColor=none;align=center;verticalAlign=middle;whiteSpace=wrap;rounded=0;" vertex="1" parent="1">
          <mxGeometry x="240" y="280" width="60" height="30" as="geometry" />
        </mxCell>
        <mxCell id="PgBgA3ld0rTaQEbaYPgW-113" value="achieved" style="shape=rhombus;perimeter=rhombusPerimeter;whiteSpace=wrap;html=1;align=center;" vertex="1" parent="1">
          <mxGeometry x="90" y="420" width="120" height="60" as="geometry" />
        </mxCell>
        <mxCell id="PgBgA3ld0rTaQEbaYPgW-114" value="m" style="edgeStyle=orthogonalEdgeStyle;rounded=0;orthogonalLoop=1;jettySize=auto;html=1;exitX=1;exitY=0.5;exitDx=0;exitDy=0;startArrow=none;startFill=0;endArrow=none;endFill=0;" edge="1" parent="1" source="PgBgA3ld0rTaQEbaYPgW-15" target="PgBgA3ld0rTaQEbaYPgW-113">
          <mxGeometry relative="1" as="geometry">
            <mxPoint x="160" y="620" as="sourcePoint" />
            <mxPoint x="180" y="300" as="targetPoint" />
          </mxGeometry>
        </mxCell>
        <mxCell id="PgBgA3ld0rTaQEbaYPgW-115" value="(2,*)" style="text;html=1;strokeColor=none;fillColor=none;align=center;verticalAlign=middle;whiteSpace=wrap;rounded=0;" vertex="1" parent="1">
          <mxGeometry x="330" y="370" width="60" height="30" as="geometry" />
        </mxCell>
        <mxCell id="PgBgA3ld0rTaQEbaYPgW-116" value="(5,5)" style="text;html=1;strokeColor=none;fillColor=none;align=center;verticalAlign=middle;whiteSpace=wrap;rounded=0;" vertex="1" parent="1">
          <mxGeometry x="340" y="85" width="60" height="30" as="geometry" />
        </mxCell>
        <mxCell id="PgBgA3ld0rTaQEbaYPgW-118" value="(0,*)" style="text;html=1;strokeColor=none;fillColor=none;align=center;verticalAlign=middle;whiteSpace=wrap;rounded=0;" vertex="1" parent="1">
          <mxGeometry x="220" y="85" width="60" height="30" as="geometry" />
        </mxCell>
        <mxCell id="PgBgA3ld0rTaQEbaYPgW-119" value="m" style="edgeStyle=orthogonalEdgeStyle;rounded=0;orthogonalLoop=1;jettySize=auto;html=1;entryX=0.5;entryY=0;entryDx=0;entryDy=0;endArrow=none;endFill=0;" edge="1" parent="1" target="PgBgA3ld0rTaQEbaYPgW-121" source="PgBgA3ld0rTaQEbaYPgW-8">
          <mxGeometry relative="1" as="geometry">
            <mxPoint x="565" y="105" as="sourcePoint" />
            <Array as="points">
              <mxPoint x="570" y="125" />
            </Array>
          </mxGeometry>
        </mxCell>
        <mxCell id="PgBgA3ld0rTaQEbaYPgW-120" value="n" style="edgeStyle=orthogonalEdgeStyle;rounded=0;orthogonalLoop=1;jettySize=auto;html=1;exitX=0.5;exitY=1;exitDx=0;exitDy=0;endArrow=none;endFill=0;" edge="1" parent="1" source="PgBgA3ld0rTaQEbaYPgW-121" target="PgBgA3ld0rTaQEbaYPgW-27">
          <mxGeometry relative="1" as="geometry">
            <mxPoint x="670" y="265" as="targetPoint" />
          </mxGeometry>
        </mxCell>
        <mxCell id="PgBgA3ld0rTaQEbaYPgW-121" value="plays_tr" style="shape=rhombus;double=1;perimeter=rhombusPerimeter;whiteSpace=wrap;html=1;align=center;" vertex="1" parent="1">
          <mxGeometry x="530" y="150" width="120" height="60" as="geometry" />
        </mxCell>
        <mxCell id="PgBgA3ld0rTaQEbaYPgW-125" value="" style="endArrow=none;html=1;rounded=0;" edge="1" parent="1" source="PgBgA3ld0rTaQEbaYPgW-121" target="PgBgA3ld0rTaQEbaYPgW-126">
          <mxGeometry relative="1" as="geometry">
            <mxPoint x="657.8048780487804" y="280" as="sourcePoint" />
            <mxPoint x="633.391813995449" y="49.824558013653586" as="targetPoint" />
          </mxGeometry>
        </mxCell>
        <mxCell id="PgBgA3ld0rTaQEbaYPgW-126" value="DATE" style="ellipse;whiteSpace=wrap;html=1;align=center;" vertex="1" parent="1">
          <mxGeometry x="590" y="15" width="100" height="40" as="geometry" />
        </mxCell>
        <mxCell id="PgBgA3ld0rTaQEbaYPgW-128" value="(0,*)" style="text;html=1;strokeColor=none;fillColor=none;align=center;verticalAlign=middle;whiteSpace=wrap;rounded=0;" vertex="1" parent="1">
          <mxGeometry x="270" y="715" width="60" height="30" as="geometry" />
        </mxCell>
        <mxCell id="PgBgA3ld0rTaQEbaYPgW-129" value="(0,*)" style="text;html=1;strokeColor=none;fillColor=none;align=center;verticalAlign=middle;whiteSpace=wrap;rounded=0;" vertex="1" parent="1">
          <mxGeometry x="400" y="165" width="60" height="30" as="geometry" />
        </mxCell>
        <mxCell id="PgBgA3ld0rTaQEbaYPgW-130" value="(0,*)" style="text;html=1;strokeColor=none;fillColor=none;align=center;verticalAlign=middle;whiteSpace=wrap;rounded=0;" vertex="1" parent="1">
          <mxGeometry x="510" y="125" width="60" height="30" as="geometry" />
        </mxCell>
        <mxCell id="PgBgA3ld0rTaQEbaYPgW-131" value="(0,*)" style="text;html=1;strokeColor=none;fillColor=none;align=center;verticalAlign=middle;whiteSpace=wrap;rounded=0;" vertex="1" parent="1">
          <mxGeometry x="440" y="130" width="60" height="30" as="geometry" />
        </mxCell>
        <mxCell id="PgBgA3ld0rTaQEbaYPgW-132" value="(2,2)" style="text;html=1;strokeColor=none;fillColor=none;align=center;verticalAlign=middle;whiteSpace=wrap;rounded=0;" vertex="1" parent="1">
          <mxGeometry x="530" y="275" width="60" height="30" as="geometry" />
        </mxCell>
        <mxCell id="PgBgA3ld0rTaQEbaYPgW-134" value="(2,2)" style="text;html=1;strokeColor=none;fillColor=none;align=center;verticalAlign=middle;whiteSpace=wrap;rounded=0;" vertex="1" parent="1">
          <mxGeometry x="594" y="235" width="60" height="30" as="geometry" />
        </mxCell>
        <mxCell id="PgBgA3ld0rTaQEbaYPgW-135" value="(0,*)" style="text;html=1;strokeColor=none;fillColor=none;align=center;verticalAlign=middle;whiteSpace=wrap;rounded=0;" vertex="1" parent="1">
          <mxGeometry x="170" y="595" width="60" height="30" as="geometry" />
        </mxCell>
        <mxCell id="PgBgA3ld0rTaQEbaYPgW-136" value="(0,*)" style="text;html=1;strokeColor=none;fillColor=none;align=center;verticalAlign=middle;whiteSpace=wrap;rounded=0;" vertex="1" parent="1">
          <mxGeometry x="180" y="300" width="60" height="30" as="geometry" />
        </mxCell>
      </root>
    </mxGraphModel>
  </diagram>
</mxfile>
